<svg width="400" height="400" viewBox="0 0 400 400" fill="none" xmlns="http://www.w3.org/2000/svg">
<g clip-path="url(#clip0_1_2)">
<path d="M200 0C98.6 0 14.8812 75.4812 1.825 173.306C1.8125 173.406 1.8 173.5 1.7875 173.6C1.4375 176.231 1.125 178.869 0.875 181.531C0.75625 182.762 0.69375 184.006 0.59375 185.244C0.4625 186.994 0.31875 188.744 0.23125 190.506C0.0875 193.644 0 196.812 0 200C0 310.456 89.5437 400 200 400C310.456 400 400 310.456 400 200C400 89.5437 310.456 0 200 0ZM208.512 365.637C204.012 370.556 196.631 374.475 191.794 369.825C187.713 365.8 191.175 360.825 191.794 355.119C192.575 348.462 189.531 340.463 195.956 338.394C201.188 336.775 205.131 340.406 208.512 344.719C213.669 351.094 213.994 359.538 208.512 365.637ZM271.538 311.688C264.163 315.487 259 314.775 250.769 315.894C235.431 317.825 223.306 325.394 211.188 315.894C205.769 311.55 205.075 306.825 200.875 301.263C194.1 292.737 192.406 277.019 182.062 280.5C175.45 282.725 175.65 289.344 171.725 295.094C166.663 302.319 167.931 312.55 159.194 313.8C153.106 314.663 149.825 310.938 144.688 307.55C138.925 303.712 137.788 299.125 132.175 295.094C126.338 290.788 121.612 290.763 115.587 286.756C111.25 283.863 110.325 278.606 105.131 278.419C100.437 278.281 97.075 280.581 94.7312 284.644C90.35 292.231 88.8438 314.6 76.0563 313.8C66.5812 313.156 46.3188 291.869 38.5938 286.756C36.0625 285.05 33.7188 283.312 31.3563 281.987C19.925 258.513 13.2875 232.288 12.625 204.581C16.4625 201.363 20.3687 199.775 23.9937 195.25C29.7875 188.188 27 179.581 34.45 174.406C39.9875 170.631 44.4625 171.238 51.1312 170.294C60.6875 168.906 66.7 167.656 76.0563 170.294C85.175 172.85 88.6562 178.081 96.8438 182.744C105.688 187.806 109.669 193.781 119.719 195.25C127.006 196.281 132.006 189.619 138.394 193.144C143.544 196.006 147.181 199.806 146.775 205.65C146.15 213.262 131.013 208.425 130.156 216.038C129.013 225.775 145.856 214.825 155.106 218.1C161.194 220.319 169.113 219.938 169.637 226.438C170.144 233.662 159.588 231.669 153.031 234.781C145.769 238.162 141.963 241.006 134.256 243.088C127.225 244.95 119.806 239.162 115.587 245.144C112.275 249.781 113.444 254.45 115.587 259.737C120.506 271.806 136.519 268.188 148.85 263.844C157.494 260.794 159.106 253.056 167.581 249.288C176.569 245.281 183.544 240.944 192.463 245.144C199.825 248.619 197.769 257.956 205 261.788C212.831 265.963 220.2 257.231 227.894 261.788C233.875 265.344 233.438 271.294 238.238 276.331C243.825 282.219 247.05 286.969 254.912 288.831C262.95 290.7 267.862 282.138 275.706 284.638C281.737 286.606 286.675 288.888 288.125 295.087C290.406 303.962 279.65 307.487 271.538 311.688ZM286.494 211.506C279.281 218.756 273.019 221.125 262.925 223.338C253.969 225.306 241.406 232.325 239.35 223.338C237.781 216.163 245.781 213.6 251.181 208.594C257.175 203 262.769 202.45 268.844 196.769C274.281 191.756 273.569 184.075 280.675 182.025C287.606 180.025 294.312 181.906 298.331 187.944C304.075 196.487 293.788 204.256 286.494 211.506ZM374.931 183.244C371.856 186.419 372.044 189.769 368.9 192.881C365.419 196.25 360.581 194.8 358.038 198.931C355.8 202.538 357.225 205.537 356.825 209.775C356.569 212.194 344.8 217.625 342.369 212.181C341.031 209.175 344.125 206.512 342.369 203.725C340.725 201.219 338.9 202.506 336.75 204.856C334.506 207.281 331.925 210.844 329.119 212.181C325.438 213.888 327.894 198.119 326.65 192.881C325.737 188.738 326.713 186.131 327.888 182.031C329.45 176.344 333.75 174.494 335.106 168.75C336.319 163.712 335.312 160.656 335.106 155.481C334.863 149.819 335.013 146.562 333.931 141.019C332.731 135.162 332.356 131.488 329.113 126.544C326.5 122.644 324.775 120.288 320.65 118.094C319.65 117.544 318.712 117.181 317.825 116.9C315.7 116.194 313.706 116.1 310.963 115.694C305.413 114.869 301.45 118.394 296.5 115.694C293.612 114.1 292.712 112.1 290.5 109.65C287.975 106.938 287.306 104.719 284.456 102.412C282.325 100.688 281.006 99.6813 278.425 98.7812C273.487 97.1375 270.038 98.2687 265.138 100.006C260.325 101.681 258.525 104.425 254.269 107.225C251.006 109.119 248.688 109.544 245.844 112.062C244.119 113.575 235.906 119.419 232.55 119.281C229.15 119.15 227.231 117.137 224.188 116.894C223.781 116.844 223.375 116.844 222.913 116.894C222.913 116.894 222.912 116.894 222.881 116.894C219.925 117.119 218.531 118.575 215.719 119.281C208.8 121.006 204.394 118.562 197.562 120.512C193.113 121.762 191.356 125.3 186.75 125.331C181.494 125.362 179.719 120.687 174.675 119.281C171.913 118.544 170.288 118.475 167.444 118.094C162.762 117.419 160.081 117.35 155.406 116.9H155.375C155.275 116.938 151.681 117.263 151.075 116.9C148.438 115.113 146.562 113.644 143.3 112.069C139.706 110.3 137.556 109.394 133.631 108.419L133.794 106.037C133.794 106.037 133.794 100.744 133.037 98.4938C132.319 96.2375 131.537 96.2375 133.037 91.7063C134.587 87.1937 137.281 84.3187 137.281 84.3187C139.137 82.8938 140.506 82.4125 142.087 80.6937C145.275 77.325 146.569 74.4563 146.925 69.825C147.344 63.75 139.394 61.2812 140.863 55.35C142.169 50.1875 146.512 49.225 150.531 45.7063C155.4 41.5188 159.706 40.9688 163.781 36.0687C166.913 32.3625 169.475 30.0375 169.844 25.2062C170.175 21.1 168.406 18.5312 166.281 15.5937C177.225 13.5937 188.481 12.5 200 12.5C293.244 12.5 370.562 80.5813 385.031 169.738C383.763 171.938 385.025 174.712 383.344 177.194C381.119 180.587 377.725 180.312 374.931 183.244Z" fill="white"/>
</g>
<defs>
<clipPath id="clip0_1_2">
<rect width="400" height="400" fill="white"/>
</clipPath>
</defs>
</svg>
