<svg width="216" height="185" viewBox="0 0 216 185" fill="none" xmlns="http://www.w3.org/2000/svg">
<path d="M95.75 0.5H111.75L112.25 1H116.75L126.75 3L128.25 4L136.25 6L137.25 7L139.75 7.5L146.75 11L155.75 16.5C160.9 19.85 165.483 23.7667 169.5 28.25L173 33C173.89 32.6267 174.223 32.8767 174 33.75C177.98 38.27 181.147 43.6033 183.5 49.75L179.25 52L167.75 55.5L163.75 50.5C162.417 50.3333 161.667 50.75 161.5 51.75L159.75 54.5L158 53.25C158.25 52.5 158 52.25 157.25 52.5L156.75 52H150.75C150 52.25 149.75 53 150 54.25C150.77 55.78 152.27 56.3633 154.5 56L153.75 57.5L149.75 58.5H142.75L141 57.5C140.46 56.8133 140.293 55.5633 140.5 53.75L142.5 50.75V48.25L137 42.75L136.5 40.25L138.25 38L142.75 37.5L144 36.25C144.25 35 144 34.25 143.25 34L141 32.25V29.75L142 28H147.25L149 29.25L150 34.75L150.75 35.5C151.917 36.3333 153.75 36.5 156.25 36L159 34.75L158.5 33L154.5 29.75C153.367 28.8233 153.033 27.24 153.5 25C147.037 19.7467 139.287 15.58 130.25 12.5L122.75 10.5H119.75L112.25 9H97.75L80.25 12.5L69.25 17L65 19.75L67.75 20H68.75C70.3333 20.0833 71.4167 20.6667 72 21.75L71 23.25C71.5833 24.3333 72.6667 24.9167 74.25 25L76.5 22C77.39 22.3767 77.7233 22.1267 77.5 21.25C79.5767 18.3267 83.3267 17.0767 88.75 17.5C91.59 17.9933 93.6733 19.2433 95 21.25C95.35 23.7333 96.4333 25.4833 98.25 26.5L101.5 28.25L100.25 30H98.5V33C100.367 32.27 101.033 32.8533 100.5 34.75L99.25 36L92.25 36.5C90.1133 34.38 88.6967 31.7133 88 28.5L84.25 30H82.25L74 33.75L73 37.75L75.25 40.5L81.25 38C83.1667 38.4167 84.5833 39.3333 85.5 40.75L88.5 48L86.75 49H84.75C83.6833 47.7333 81.6833 47.4 78.75 48C76.8333 48.5667 76.0833 50.0667 76.5 52.5L70.75 54L67.5 56.75L65.25 60C63.2067 60.4567 61.79 61.54 61 63.25C59.7767 64.6933 59.4433 67.0267 60 70.25L61 73.25L60.5 74.5C58.2333 74.15 56.5667 72.9 55.5 70.75L53.25 68L51.75 67L47.25 66.5L43.25 68L42 69.25L41 70.75C40.0567 71.64 39.7233 73.14 40 75.25C40.4167 77.1667 41.3333 78.5833 42.75 79.5L47.75 80.5C48.5267 79.61 49.86 79.2767 51.75 79.5C52.6667 79.9167 52.9167 81 52.5 82.75C51.1667 83.0833 50.6667 84.25 51 86.25L54.75 91L59.75 93.5L65.25 91.5H68.25C71.2633 92.4867 73.7633 93.9867 75.75 96L81.75 97.5H84.25L86 99.25L89.25 105L92.75 106H95.25L101 108.25C101.167 109.917 100.583 110.833 99.25 111L88.75 116.5L85.75 117L84.75 118C82.2433 118.16 80.2433 118.827 78.75 120L69.75 122L68.25 123L64.25 123.5L62.75 124.5L57 125L54 117.25L53.5 111.75C54.4267 108.177 56.0933 105.343 58.5 103.25L59 100.75L58.5 99.5C54.9367 97.9933 51.77 95.91 49 93.25L43.75 87C42.6533 86.0967 40.9867 85.7633 38.75 86C35.86 85.0567 33.61 83.4733 32 81.25L28 73.75L26.25 64.5L25 65.75L23 73.75V76.25L22 78.25L21.5 88.25L21 88.75V95.75L21.5 96.25V103.25L23.5 113.75L29 129.5C24.74 129.023 21.5733 127.273 19.5 124.25L15.5 114.75L13.5 107.25V104.25L12 97.25V83.25L15.5 66.25L21.5 52.25C27.1767 41.4233 34.4267 32.1733 43.25 24.5L57.25 14L70.25 7L83.75 2.5H86.25L90.75 1H95.25L95.75 0.5ZM63.5 20.5L63 21.5H63.5V20.5ZM62.5 21.5V22H63L62.5 21.5ZM68.5 26L67.5 26.5V27L69 26.5L68.5 26ZM66 26.5L65 27.5C65.6667 28.5 66.1667 28.5 66.5 27.5C66.8333 26.5 66.6667 26.1667 66 26.5Z" fill="white"/>
<path d="M65 20V20.5M95.75 0.5H111.75L112.25 1H116.75L126.75 3L128.25 4L136.25 6L137.25 7L139.75 7.5L146.75 11L155.75 16.5C160.9 19.85 165.483 23.7667 169.5 28.25L173 33C173.89 32.6267 174.223 32.8767 174 33.75C177.98 38.27 181.147 43.6033 183.5 49.75L179.25 52L167.75 55.5L163.75 50.5C162.417 50.3333 161.667 50.75 161.5 51.75L159.75 54.5L158 53.25C158.25 52.5 158 52.25 157.25 52.5L156.75 52H150.75C150 52.25 149.75 53 150 54.25C150.77 55.78 152.27 56.3633 154.5 56L153.75 57.5L149.75 58.5H142.75L141 57.5C140.46 56.8133 140.293 55.5633 140.5 53.75L142.5 50.75V48.25L137 42.75L136.5 40.25L138.25 38L142.75 37.5L144 36.25C144.25 35 144 34.25 143.25 34L141 32.25V29.75L142 28H147.25L149 29.25L150 34.75L150.75 35.5C151.917 36.3333 153.75 36.5 156.25 36L159 34.75L158.5 33L154.5 29.75C153.367 28.8233 153.033 27.24 153.5 25C147.037 19.7467 139.287 15.58 130.25 12.5L122.75 10.5H119.75L112.25 9H97.75L80.25 12.5L69.25 17L65 19.75L67.75 20H68.75C70.3333 20.0833 71.4167 20.6667 72 21.75L71 23.25C71.5833 24.3333 72.6667 24.9167 74.25 25L76.5 22C77.39 22.3767 77.7233 22.1267 77.5 21.25C79.5767 18.3267 83.3267 17.0767 88.75 17.5C91.59 17.9933 93.6733 19.2433 95 21.25C95.35 23.7333 96.4333 25.4833 98.25 26.5L101.5 28.25L100.25 30H98.5V33C100.367 32.27 101.033 32.8533 100.5 34.75L99.25 36L92.25 36.5C90.1133 34.38 88.6967 31.7133 88 28.5L84.25 30H82.25L74 33.75L73 37.75L75.25 40.5L81.25 38C83.1667 38.4167 84.5833 39.3333 85.5 40.75L88.5 48L86.75 49H84.75C83.6833 47.7333 81.6833 47.4 78.75 48C76.8333 48.5667 76.0833 50.0667 76.5 52.5L70.75 54L67.5 56.75L65.25 60C63.2067 60.4567 61.79 61.54 61 63.25C59.7767 64.6933 59.4433 67.0267 60 70.25L61 73.25L60.5 74.5C58.2333 74.15 56.5667 72.9 55.5 70.75L53.25 68L51.75 67L47.25 66.5L43.25 68L42 69.25L41 70.75C40.0567 71.64 39.7233 73.14 40 75.25C40.4167 77.1667 41.3333 78.5833 42.75 79.5L47.75 80.5C48.5267 79.61 49.86 79.2767 51.75 79.5C52.6667 79.9167 52.9167 81 52.5 82.75C51.1667 83.0833 50.6667 84.25 51 86.25L54.75 91L59.75 93.5L65.25 91.5H68.25C71.2633 92.4867 73.7633 93.9867 75.75 96L81.75 97.5H84.25L86 99.25L89.25 105L92.75 106H95.25L101 108.25C101.167 109.917 100.583 110.833 99.25 111L88.75 116.5L85.75 117L84.75 118C82.2433 118.16 80.2433 118.827 78.75 120L69.75 122L68.25 123L64.25 123.5L62.75 124.5L57 125L54 117.25L53.5 111.75C54.4267 108.177 56.0933 105.343 58.5 103.25L59 100.75L58.5 99.5C54.9367 97.9933 51.77 95.91 49 93.25L43.75 87C42.6533 86.0967 40.9867 85.7633 38.75 86C35.86 85.0567 33.61 83.4733 32 81.25L28 73.75L26.25 64.5L25 65.75L23 73.75V76.25L22 78.25L21.5 88.25L21 88.75V95.75L21.5 96.25V103.25L23.5 113.75L29 129.5C24.74 129.023 21.5733 127.273 19.5 124.25L15.5 114.75L13.5 107.25V104.25L12 97.25V83.25L15.5 66.25L21.5 52.25C27.1767 41.4233 34.4267 32.1733 43.25 24.5L57.25 14L70.25 7L83.75 2.5H86.25L90.75 1H95.25L95.75 0.5ZM63.5 20.5L63 21.5H63.5V20.5ZM62.5 21.5V22H63L62.5 21.5ZM68.5 26L67.5 26.5V27L69 26.5L68.5 26ZM66 26.5L65 27.5C65.6667 28.5 66.1667 28.5 66.5 27.5C66.8333 26.5 66.6667 26.1667 66 26.5Z" stroke="white"/>
<path d="M213.75 44.5C214.5 44.25 214.75 44.5 214.5 45.25C203.82 64.7367 192.653 83.7367 181 102.25L173 117.5H171.75L169.5 115.25L161.5 105.25L157 98.25V96.75C165.46 88.1467 174.46 80.23 184 73C183.627 72.11 183.877 71.7767 184.75 72L200 57.25L198.75 57L173.25 72L159.25 81.5L149.25 90H146.75L141.25 89L139.75 88L135.25 87.5L133.75 86.5L129.75 86L120.75 83H118.75L116.5 81.75C116.25 81 116.5 80.75 117.25 81L118.25 80L121.25 79.5L127.25 76.5H128.75L148.25 68.5H149.75L161.75 63.5L167.75 62L174.25 59L181.75 57L188.25 54L191.25 53.5L192.25 52.5L195.25 52L196.25 51L203.25 49L204.25 48L208.75 47L213.75 44.5Z" fill="white" stroke="white"/>
<path d="M195.25 91.5L195.5 100.75L195 101.25V105.75L194 108.25L193.5 113.25L192.5 115.25L191.5 121.25L185.5 135.75C180.043 145.96 173.127 154.71 164.75 162L152.75 171L136.75 179L124.25 182.5L118.75 183L116.25 184L101.25 184.5L100.75 184H93.75L91.75 183L85.75 182.5L74.25 179L72.75 178H71.25L59.75 172.5L44 161.5C44.3767 160.61 44.1267 160.277 43.25 160.5L36.5 153.75L37.25 153C40.8833 153.467 43.8833 153.3 46.25 152.5L49 154C48.6233 154.89 48.8733 155.223 49.75 155C57.93 162.82 68.0967 168.653 80.25 172.5C81.5 171.75 81.25 171 79.5 170.25L75 158.75L74 153.75V149.75L74.75 149L85.25 147L86.75 146L90.25 145.5L96.75 143L104.25 139.5L109.25 135.5C110.787 136.963 111.37 139.38 111 142.75C109.693 144.277 107.777 145.193 105.25 145.5L102.5 148.25V152.75L100.25 155.5L97.75 157L91.25 158.5L89 160.75L88 165.25L90.5 169.75C89.1667 170.833 88.5 172.417 88.5 174.5L95.25 176L108.25 176.5L108.75 176H114.75L116.75 175L122.75 174.5L137.75 169.5L149.75 163L157 157.25L158 155.75L158.5 150.25C157.547 149.037 157.213 147.203 157.5 144.75L161.5 135.25L162 130.25C160.383 126.867 158.217 124.033 155.5 121.75C154.473 119.943 153.973 117.61 154 114.75L155 110.25L156.25 108.5L170.25 124.5L172.75 125L182 113.75L195.25 91.5Z" fill="white" stroke="white"/>
<path d="M152.75 95.5C154.207 95 154.79 95.25 154.5 96.25L150.75 100.5C142.81 108.06 134.143 114.893 124.75 121L113.75 127.5L96.25 135.5L82.25 140.5L78.25 141L76.75 142L69.25 144H66.75L62.75 145.5L56.25 146L54.25 147C52.1667 146.417 50.8333 146.583 50.25 147.5H46.25L43.25 148.5H28.25L25.25 147.5L19.25 147C18.2633 145.987 16.7633 145.487 14.75 145.5L10.25 143.5L5 139.25L2.5 135.75L0.5 130.25V119.25C2.27667 112.937 4.94333 107.687 8.5 103.5C9.87667 102.943 10.3767 103.36 10 104.75L9 106.25L8.5 110.75L7.5 112.75V123.25L9 126.75L12.25 130L17.75 132.5L22.75 133L25.25 134H40.25L44.25 133L52.75 132.5L55.25 131.5L67.75 129.5L90.25 123L113.75 113.5L129.75 105.5L152.75 95.5Z" fill="white" stroke="white"/>
</svg>
