<svg width="401" height="361" viewBox="0 0 401 361" fill="none" xmlns="http://www.w3.org/2000/svg">
<path d="M121.008 38.6522V39.6304ZM178.459 0.5H208.353L209.287 1.47826H217.694L236.378 5.3913L239.18 7.34783L254.127 11.2609L255.995 13.2174L260.666 14.1957L273.745 21.0435L290.56 31.8043C300.182 38.3587 308.744 46.0218 316.249 54.7935L322.789 64.087C324.451 63.3566 325.074 63.8457 324.657 65.5544C332.093 74.3978 338.01 84.8325 342.406 96.8587L334.466 101.261L312.98 108.109L305.506 98.3261C303.016 97.9999 301.615 98.8152 301.303 100.772L298.033 106.152L294.764 103.707C295.231 102.239 294.764 101.75 293.362 102.239L292.428 101.261H281.218C279.817 101.75 279.35 103.217 279.817 105.663C281.255 108.657 284.058 109.798 288.224 109.087L286.823 112.022L279.35 113.978H266.271L263.002 112.022C261.993 110.678 261.681 108.233 262.068 104.685L265.804 98.8152V93.9239L255.528 83.163L254.594 78.2717L257.864 73.8696L266.271 72.8913L268.607 70.4457C269.074 68 268.607 66.5326 267.206 66.0435L263.002 62.6196V57.7283L264.87 54.3044H274.679L277.948 56.75L279.817 67.5109L281.218 68.9783C283.398 70.6086 286.823 70.9348 291.494 69.9565L296.632 67.5109L295.698 64.087L288.224 57.7283C286.108 55.9152 285.483 52.8174 286.356 48.4348C274.281 38.1566 259.801 30.0043 242.917 23.9783L228.905 20.0652H223.3L209.287 17.1304H182.196L149.5 23.9783L128.948 32.7826L121.008 38.163L126.146 38.6522H128.014C130.972 38.8152 132.996 39.9566 134.086 42.0761L132.218 45.0109C133.308 47.1304 135.332 48.2718 138.29 48.4348L142.494 42.5652C144.157 43.3022 144.779 42.8131 144.362 41.0978C148.242 35.3783 155.248 32.9327 165.381 33.7609C170.687 34.726 174.579 37.1717 177.058 41.0978C177.712 45.9565 179.736 49.3804 183.13 51.3696L189.202 54.7935L186.867 58.2174H183.597V64.087C187.085 62.6587 188.33 63.7999 187.334 67.5109L184.999 69.9565L171.92 70.9348C167.928 66.787 165.281 61.5695 163.98 55.2826L156.973 58.2174H153.237L137.823 65.5544L135.955 73.3804L140.158 78.7609L151.368 73.8696C154.949 74.6849 157.596 76.4782 159.309 79.25L164.914 93.4348L161.644 95.3913H157.908C155.915 92.913 152.178 92.2609 146.698 93.4348C143.117 94.5435 141.715 97.4783 142.494 102.239L131.751 105.174L125.679 110.554L121.475 116.913C117.657 117.807 115.011 119.926 113.535 123.272C111.249 126.096 110.626 130.661 111.666 136.967L113.535 142.837L112.6 145.283C108.365 144.598 105.252 142.152 103.259 137.946L99.0549 132.565L96.2524 130.609L87.8448 129.63L80.3715 132.565L78.0361 135.011L76.1677 137.946C74.4053 139.687 73.7824 142.622 74.2994 146.75C75.0779 150.5 76.7904 153.272 79.4373 155.065L88.779 157.022C90.2301 155.28 92.7212 154.628 96.2524 155.065C97.9651 155.881 98.4322 158 97.6536 161.424C95.1626 162.076 94.2284 164.359 94.8511 168.272L101.857 177.565L111.199 182.457L121.475 178.543H127.08C132.71 180.474 137.381 183.409 141.093 187.348L152.303 190.283H156.973L160.243 193.707L166.315 204.957L172.854 206.913H177.525L188.268 211.315C188.58 214.577 187.489 216.369 184.999 216.696L165.381 227.457L159.776 228.435L157.908 230.391C153.224 230.704 149.488 232.009 146.698 234.304L129.882 238.217L127.08 240.174L119.607 241.152L116.804 243.109L106.061 244.087L100.456 228.924L99.522 218.163C101.253 211.172 104.367 205.628 108.864 201.533L109.798 196.641L108.864 194.196C102.206 191.248 96.2897 187.172 91.1144 181.967L81.3056 169.739C79.2566 167.972 76.1429 167.32 71.9639 167.783C66.5644 165.937 62.3607 162.839 59.3526 158.489L51.8793 143.815L48.6097 125.717L46.2743 128.163L42.5376 143.815V148.707L40.6692 152.62L39.7351 172.185L38.8009 173.163V186.859L39.7351 187.837V201.533L43.4718 222.076L53.7476 252.891C45.7885 251.958 39.872 248.534 35.9984 242.62L28.525 224.033L24.7884 209.359V203.489L21.9858 189.793V162.402L28.525 129.141L39.7351 101.75C50.3411 80.5673 63.8865 62.4695 80.3715 47.4565L106.528 26.913L130.817 13.2174L156.039 4.41304H160.71L169.118 1.47826H177.525L178.459 0.5ZM118.205 39.6304L117.271 41.587H118.205V39.6304ZM116.337 41.587V42.5652H117.271L116.337 41.587ZM127.547 50.3913L125.679 51.3696V52.3478L128.481 51.3696L127.547 50.3913ZM122.876 51.3696L121.008 53.3261C122.254 55.2826 123.188 55.2826 123.81 53.3261C124.433 51.3696 124.122 50.7175 122.876 51.3696Z" fill="white"/>
<path d="M121.008 38.6522V39.6304M178.459 0.5H208.353L209.287 1.47826H217.694L236.378 5.3913L239.18 7.34783L254.127 11.2609L255.995 13.2174L260.666 14.1957L273.745 21.0435L290.56 31.8043C300.182 38.3587 308.744 46.0218 316.249 54.7935L322.789 64.087C324.451 63.3566 325.074 63.8457 324.657 65.5544C332.093 74.3978 338.01 84.8325 342.406 96.8587L334.466 101.261L312.98 108.109L305.506 98.3261C303.016 97.9999 301.615 98.8152 301.303 100.772L298.033 106.152L294.764 103.707C295.231 102.239 294.764 101.75 293.362 102.239L292.428 101.261H281.218C279.817 101.75 279.35 103.217 279.817 105.663C281.255 108.657 284.058 109.798 288.224 109.087L286.823 112.022L279.35 113.978H266.271L263.002 112.022C261.993 110.678 261.681 108.233 262.068 104.685L265.804 98.8152V93.9239L255.528 83.163L254.594 78.2717L257.864 73.8696L266.271 72.8913L268.607 70.4457C269.074 68 268.607 66.5326 267.206 66.0435L263.002 62.6196V57.7283L264.87 54.3044H274.679L277.948 56.75L279.817 67.5109L281.218 68.9783C283.398 70.6086 286.823 70.9348 291.494 69.9565L296.632 67.5109L295.698 64.087L288.224 57.7283C286.108 55.9152 285.483 52.8174 286.356 48.4348C274.281 38.1566 259.801 30.0043 242.917 23.9783L228.905 20.0652H223.3L209.287 17.1304H182.196L149.5 23.9783L128.948 32.7826L121.008 38.163L126.146 38.6522H128.014C130.972 38.8152 132.996 39.9566 134.086 42.0761L132.218 45.0109C133.308 47.1304 135.332 48.2718 138.29 48.4348L142.494 42.5652C144.157 43.3022 144.779 42.8131 144.362 41.0978C148.242 35.3783 155.248 32.9327 165.381 33.7609C170.687 34.726 174.579 37.1717 177.058 41.0978C177.712 45.9565 179.736 49.3804 183.13 51.3696L189.202 54.7935L186.867 58.2174H183.597V64.087C187.085 62.6587 188.33 63.7999 187.334 67.5109L184.999 69.9565L171.92 70.9348C167.928 66.787 165.281 61.5695 163.98 55.2826L156.973 58.2174H153.237L137.823 65.5544L135.955 73.3804L140.158 78.7609L151.368 73.8696C154.949 74.6849 157.596 76.4782 159.309 79.25L164.914 93.4348L161.644 95.3913H157.908C155.915 92.913 152.178 92.2609 146.698 93.4348C143.117 94.5435 141.715 97.4783 142.494 102.239L131.751 105.174L125.679 110.554L121.475 116.913C117.657 117.807 115.011 119.926 113.535 123.272C111.249 126.096 110.626 130.661 111.666 136.967L113.535 142.837L112.6 145.283C108.365 144.598 105.252 142.152 103.259 137.946L99.0549 132.565L96.2524 130.609L87.8448 129.63L80.3715 132.565L78.0361 135.011L76.1677 137.946C74.4053 139.687 73.7824 142.622 74.2994 146.75C75.0779 150.5 76.7904 153.272 79.4373 155.065L88.779 157.022C90.2301 155.28 92.7212 154.628 96.2524 155.065C97.9651 155.881 98.4322 158 97.6536 161.424C95.1626 162.076 94.2284 164.359 94.8511 168.272L101.857 177.565L111.199 182.457L121.475 178.543H127.08C132.71 180.474 137.381 183.409 141.093 187.348L152.303 190.283H156.973L160.243 193.707L166.315 204.957L172.854 206.913H177.525L188.268 211.315C188.58 214.577 187.489 216.369 184.999 216.696L165.381 227.457L159.776 228.435L157.908 230.391C153.224 230.704 149.488 232.009 146.698 234.304L129.882 238.217L127.08 240.174L119.607 241.152L116.804 243.109L106.061 244.087L100.456 228.924L99.522 218.163C101.253 211.172 104.367 205.628 108.864 201.533L109.798 196.641L108.864 194.196C102.206 191.248 96.2897 187.172 91.1144 181.967L81.3056 169.739C79.2566 167.972 76.1429 167.32 71.9639 167.783C66.5644 165.937 62.3607 162.839 59.3526 158.489L51.8793 143.815L48.6097 125.717L46.2743 128.163L42.5376 143.815V148.707L40.6692 152.62L39.7351 172.185L38.8009 173.163V186.859L39.7351 187.837V201.533L43.4718 222.076L53.7476 252.891C45.7885 251.958 39.872 248.534 35.9984 242.62L28.525 224.033L24.7884 209.359V203.489L21.9858 189.793V162.402L28.525 129.141L39.7351 101.75C50.3411 80.5673 63.8865 62.4695 80.3715 47.4565L106.528 26.913L130.817 13.2174L156.039 4.41304H160.71L169.118 1.47826H177.525L178.459 0.5ZM118.205 39.6304L117.271 41.587H118.205V39.6304ZM116.337 41.587V42.5652H117.271L116.337 41.587ZM127.547 50.3913L125.679 51.3696V52.3478L128.481 51.3696L127.547 50.3913ZM122.876 51.3696L121.008 53.3261C122.254 55.2826 123.188 55.2826 123.81 53.3261C124.433 51.3696 124.122 50.7175 122.876 51.3696Z" stroke="white"/>
<path d="M398.924 86.5869C400.325 86.0978 400.792 86.5869 400.325 88.0543C380.371 126.18 359.507 163.354 337.735 199.576L322.789 229.413H320.453L316.249 225.011L301.303 205.446L292.895 191.75V188.815C308.701 171.983 325.516 156.493 343.34 142.348C342.643 140.606 343.111 139.954 344.742 140.391L373.234 111.533L370.898 111.043L323.256 140.391L297.099 158.978L278.416 175.609H273.745L263.469 173.652L260.666 171.696L252.259 170.717L249.456 168.761L241.983 167.783L225.168 161.913H221.431L217.227 159.467C216.76 158 217.227 157.511 218.629 158L220.497 156.043L226.102 155.065L237.312 149.196H240.115L276.547 133.543H279.35L301.77 123.761L312.98 120.826L325.124 114.956L339.137 111.043L351.281 105.174L356.886 104.196L358.754 102.239L364.359 101.261L366.228 99.3043L379.306 95.3913L381.174 93.4348L389.582 91.4782L398.924 86.5869Z" fill="white" stroke="white"/>
<path d="M364.359 178.543L364.826 196.641L363.892 197.62V206.424L362.024 211.315L361.09 221.098L359.221 225.011L357.353 236.75L346.143 265.12C335.947 285.096 323.026 302.215 307.375 316.478L284.955 334.087L255.061 349.739L231.707 356.587L221.431 357.565L216.76 359.522L188.735 360.5L187.801 359.522H174.723L170.986 357.565L159.776 356.587L138.29 349.739L135.488 347.783H132.685L111.199 337.022L81.7728 315.5C82.4766 313.759 82.0095 313.107 80.3716 313.543L67.7603 300.337L69.1615 298.87C75.9498 299.783 81.5548 299.457 85.9766 297.891L91.1145 300.826C90.4107 302.567 90.8778 303.219 92.5158 302.783C107.799 318.083 126.794 329.495 149.5 337.022C151.836 335.554 151.368 334.087 148.099 332.62L139.691 310.12L137.823 300.337V292.511L139.224 291.043L158.842 287.13L161.644 285.174L168.184 284.196L180.328 279.304L194.34 272.457L203.682 264.63C206.554 267.493 207.643 272.222 206.952 278.815C204.51 281.803 200.93 283.595 196.209 284.196L191.071 289.576V298.38L186.867 303.761L182.196 306.696L170.052 309.63L165.848 314.033L163.98 322.837L168.651 331.641C166.16 333.76 164.914 336.859 164.914 340.935L177.525 343.87L201.814 344.848L202.748 343.87H213.958L217.695 341.913L228.905 340.935L256.93 331.152L279.35 318.435L292.895 307.185L294.764 304.25L295.698 293.489C293.917 291.116 293.293 287.528 293.829 282.728L301.303 264.141L302.237 254.359C299.216 247.74 295.169 242.195 290.093 237.728C288.174 234.193 287.24 229.628 287.29 224.033L289.159 215.228L291.494 211.804L317.651 243.109L322.322 244.087L339.604 222.076L364.359 178.543Z" fill="white" stroke="white"/>
<path d="M284.955 186.37C287.677 185.391 288.766 185.88 288.224 187.837L281.218 196.152C266.384 210.943 250.191 224.312 232.641 236.261L212.09 248.978L179.394 264.63L153.237 274.413L145.763 275.391L142.961 277.348L128.948 281.261H124.278L116.804 284.196L104.66 285.174L100.923 287.13C97.031 285.99 94.5397 286.315 93.4499 288.109H85.9766L80.3716 290.065H52.3464L46.7414 288.109L35.5314 287.13C33.6879 285.148 30.8854 284.17 27.1239 284.196L18.7163 280.283L8.90753 271.967L4.23668 265.12L0.5 254.359V232.837C3.81942 220.485 8.80165 210.214 15.4467 202.022C18.0188 200.932 18.953 201.748 18.2492 204.467L16.3809 207.402L15.4467 216.207L13.5784 220.12V240.663L16.3809 247.511L22.453 253.87L32.7289 258.761L42.0706 259.739L46.7414 261.696H74.7665L82.2399 259.739L98.1208 258.761L102.792 256.804L126.146 252.891L168.184 240.174L212.09 221.587L241.983 205.935L284.955 186.37Z" fill="white" stroke="white"/>
</svg>
